<?xml version="1.0" standalone="no"?>
<!DOCTYPE svg PUBLIC "-//W3C//DTD SVG 20010904//EN"
 "http://www.w3.org/TR/2001/REC-SVG-20010904/DTD/svg10.dtd">
<svg version="1.0" xmlns="http://www.w3.org/2000/svg"
 width="357.000000pt" height="357.000000pt" viewBox="0 0 357.000000 357.000000"
 preserveAspectRatio="xMidYMid meet">
<metadata>
Created by potrace 1.11, written by Peter Selinger 2001-2013
</metadata>
<g transform="translate(0.000000,357.000000) scale(0.100000,-0.100000)"
fill="#000000" stroke="none">
<path d="M1596 3537 c3 -10 9 -15 12 -12 3 3 0 11 -7 18 -10 9 -11 8 -5 -6z"/>
<path d="M1660 3454 c0 -5 -20 -11 -44 -13 -25 -1 -53 -4 -64 -6 -11 -2 -42
-7 -69 -11 -67 -9 -75 -11 -103 -22 -14 -5 -28 -10 -33 -10 -17 -1 -151 -45
-176 -58 -14 -8 -34 -14 -43 -14 -10 0 -18 -4 -18 -10 0 -5 -6 -10 -12 -10
-13 0 -19 -3 -118 -56 -90 -49 -271 -175 -278 -195 -2 -5 -10 -9 -18 -9 -9 0
-12 -4 -9 -10 3 -5 2 -10 -3 -10 -5 0 -23 -15 -40 -32 -117 -122 -182 -197
-182 -210 0 -5 -6 -6 -13 -2 -6 4 -9 4 -5 -1 5 -5 -3 -23 -17 -41 -14 -18 -25
-37 -25 -43 0 -6 -4 -11 -8 -11 -5 0 -17 -18 -27 -40 -10 -22 -21 -40 -24 -40
-3 0 -17 -25 -30 -55 -14 -30 -28 -55 -33 -55 -4 0 -7 -3 -6 -7 1 -5 -3 -24
-10 -43 -7 -19 -12 -36 -12 -38 0 -1 -7 -16 -15 -32 -9 -17 -13 -30 -10 -30 4
0 -1 -10 -9 -22 -9 -12 -16 -33 -16 -45 0 -13 -5 -23 -11 -23 -5 0 -7 -5 -4
-10 4 -6 1 -26 -5 -46 -14 -42 -18 -61 -19 -92 -1 -13 -4 -21 -8 -19 -5 3 -8
-14 -9 -36 -1 -23 -4 -78 -7 -122 -8 -115 -10 -238 -3 -255 3 -8 4 -38 3 -67
-1 -28 1 -49 6 -46 4 2 8 -10 8 -26 2 -36 6 -70 9 -73 1 -2 3 -12 5 -23 11
-71 65 -235 106 -323 16 -35 29 -65 29 -67 0 -10 104 -180 112 -183 4 -2 8
-10 8 -18 0 -8 4 -14 8 -14 5 0 14 -10 19 -22 18 -38 172 -210 234 -263 14
-11 39 -32 56 -46 18 -15 29 -30 25 -34 -4 -5 -2 -5 5 -2 6 4 17 1 25 -6 21
-21 159 -112 203 -134 22 -11 54 -27 70 -36 46 -23 117 -54 145 -62 14 -4 30
-11 35 -15 6 -4 42 -16 82 -26 39 -10 70 -21 68 -24 -2 -3 9 -5 23 -6 27 0
117 -12 156 -20 12 -2 36 -5 54 -6 17 -1 32 -4 32 -8 0 -4 10 -6 23 -4 12 2
90 5 172 8 83 2 161 7 175 10 14 3 45 9 70 12 25 3 48 8 51 10 3 2 19 6 36 8
17 3 61 16 99 28 38 12 72 21 77 20 4 -1 7 3 7 8 0 6 6 10 13 8 6 -1 34 8 61
20 26 12 53 19 59 15 5 -3 7 -1 4 4 -4 6 10 18 31 27 20 9 56 27 79 40 22 14
44 22 47 19 3 -4 6 -2 6 4 0 10 28 31 92 69 65 39 368 335 368 359 0 3 17 29
38 58 21 29 58 87 81 130 23 42 47 75 52 72 5 -4 6 1 3 9 -3 8 -2 21 2 28 5 7
9 15 9 18 1 3 8 21 17 40 18 41 42 100 45 115 1 6 11 40 22 78 11 37 17 67 15
67 -3 0 0 8 5 18 9 17 30 145 37 227 5 60 5 245 0 287 -15 119 -34 234 -47
276 -6 18 -12 41 -14 50 -2 9 -4 17 -5 17 -2 0 -11 38 -12 53 -1 6 -5 12 -10
12 -4 0 -8 7 -8 15 0 8 -4 23 -9 33 -5 9 -32 67 -61 127 -29 61 -66 129 -82
152 -15 23 -28 46 -28 51 0 6 -3 12 -7 14 -5 2 -28 30 -53 63 -25 33 -66 82
-92 109 -27 26 -48 51 -49 55 0 3 -30 31 -66 61 -36 30 -71 60 -77 65 -91 80
-353 235 -397 235 -6 0 -7 5 -3 12 4 6 3 8 -4 4 -6 -3 -28 0 -49 8 -21 8 -47
17 -58 22 -11 4 -25 8 -32 10 -14 3 -82 23 -103 31 -8 3 -31 7 -50 10 -19 2
-42 6 -50 9 -30 11 -128 18 -265 18 -81 1 -143 5 -147 11 -5 7 -8 6 -8 -1z"/>
<path d="M1076 3368 c3 -5 10 -6 15 -3 13 9 11 12 -6 12 -8 0 -12 -4 -9 -9z"/>
<path d="M586 3052 c-3 -5 1 -9 9 -9 8 0 12 4 9 9 -3 4 -7 8 -9 8 -2 0 -6 -4
-9 -8z"/>
<path d="M266 2652 c-3 -5 1 -9 9 -9 8 0 12 4 9 9 -3 4 -7 8 -9 8 -2 0 -6 -4
-9 -8z"/>
<path d="M76 2092 c-3 -5 1 -9 9 -9 8 0 12 4 9 9 -3 4 -7 8 -9 8 -2 0 -6 -4
-9 -8z"/>
<path d="M3466 2088 c3 -5 10 -6 15 -3 13 9 11 12 -6 12 -8 0 -12 -4 -9 -9z"/>
<path d="M26 1932 c-3 -5 1 -9 9 -9 8 0 12 4 9 9 -3 4 -7 8 -9 8 -2 0 -6 -4
-9 -8z"/>
<path d="M3476 1528 c3 -5 10 -6 15 -3 13 9 11 12 -6 12 -8 0 -12 -4 -9 -9z"/>
<path d="M2026 88 c3 -5 10 -6 15 -3 13 9 11 12 -6 12 -8 0 -12 -4 -9 -9z"/>
</g>
</svg>
